PathFileType	4	(X/Y/Z)	19_coords_data.trc
DataRate	CameraRate	NumFrames	NumMarkers	Units	OrigDataRate	OrigDataStartFrame	OrigNumFrames
30.0	30.0	5	21	m	30.0	57	75
Frame#	Time	THUMB_TIP	THUMB_IP	THUMB_MCP	THUMB_CMC	INDEX_TIP	INDEX_DIP	INDEX_PIP	INDEX_MCP	MIDDLE_TIP	MIDDLE_DIP	MIDDLE_PIP	MIDDLE_MCP	RING_TIP	RING_DIP	RING_PIP	RING_MCP	PINKY_TIP	PINKY_DIP	PINKY_PIP	PINKY_MCP	WRIST
X1	Y1	Z1	X2	Y2	Z2	X3	Y3	Z3	X4	Y4	Z4	X5	Y5	Z5	X6	Y6	Z6	X7	Y7	Z7	X8	Y8	Z8	X9	Y9	Z9	X10	Y10	Z10	X11	Y11	Z11	X12	Y12	Z12	X13	Y13	Z13	X14	Y14	Z14	X15	Y15	Z15	X16	Y16	Z16	X17	Y17	Z17	X18	Y18	Z18	X19	Y19	Z19	X20	Y20	Z20	X21	Y21	Z21
55	1.8666666666666587	0.5354326935384982	0.0712909930082869	-0.08188349125641148	0.5232152176844649	0.05234211063912164	-0.07744804982227549	0.506654413983413	0.026090906627175503	-0.07977915872114918	0.48403559678357566	-0.005172418354379316	-0.05739872933344442	0.4967779172166573	0.13541168011257	-0.02199129612606593	0.4882011168783361	0.12228281725806722	-0.031050625908352822	0.4799051838485619	0.10123549935795817	-0.04201409877862766	0.48004828584000203	0.05971742126792112	-0.051493803812521666	0.464899354038742	0.1360895045507038	0.011749603197269393	0.4631311803837058	0.1208046929076062	0.0021972163248346194	0.4611721292499036	0.0961524481917454	-0.013224797133999516	0.4663178129348301	0.055919320732064515	-0.03195886543823495	0.4646345678906537	0.11624830477422521	0.031911804885290454	0.4614366071825568	0.10144405249156185	0.022133913412139217	0.4581269259924045	0.08086478311517831	0.008506013304133059	0.4628911793535714	0.04664268159626683	-0.012490902934685091	0.46757279755656245	0.06817379187003914	0.06333288996818857	0.4657984559902091	0.05861884744741597	0.049241944326163994	0.4640902873798065	0.047492719619882995	0.03151898016765389	0.4643635194624074	0.02865594890773948	0.0007621132211138026	0.4622830810018609	-0.023011742144276925	-0.051989820119430985
56	1.8999999999999915	0.5360505112594927	0.07096434529319307	-0.08116994175657133	0.523655916873668	0.0520589504974065	-0.0770516802755179	0.5069357273521234	0.025931385228213255	-0.07962181557695244	0.4841256012281664	-0.005266103516033294	-0.05734391526606608	0.497488918541518	0.13514199207109356	-0.02153796261593645	0.48883512844612387	0.12209709671407232	-0.030645246629802586	0.4804379977936021	0.10113365232277127	-0.04169205743914062	0.48040120599320335	0.05963925202767928	-0.051275871111896215	0.46574740345910304	0.13584213561149805	0.012276427509640031	0.46385888773804185	0.12062014062251403	0.0026470777430851328	0.46173016326224103	0.09604837057694005	-0.012880517013784468	0.46662363026125353	0.05585305083084524	-0.031762735427910915	0.4651990064409637	0.11601517405018769	0.03226930711825108	0.46193430940898206	0.10125881664027392	0.022441201030084568	0.45850970315238193	0.08074200433236278	0.008747681989706296	0.46312036370269033	0.04655231489968692	-0.012336145456632835	0.46784218446233633	0.06782026666976926	0.06358800110791772	0.46605949763033466	0.05832388256211396	0.04945857378269046	0.4643006925827098	0.047253281549847426	0.031705815770718036	0.4645280600508104	0.028527525379799745	0.0008808614172339246	0.4622830810018609	-0.023011742144276925	-0.051989820119430985
57	1.9333333333333247	0.5366797312948466	0.07056240502759148	-0.08051131558121707	0.5240948748081384	0.051713837927766626	-0.07672279271704416	0.5072059503159551	0.02572097200421697	-0.07954328036596178	0.48422487492397925	-0.005375803611429308	-0.05730028775843546	0.4982405001779757	0.1348849189423842	-0.021188097462348107	0.48951519899358	0.12191539404746032	-0.03033471122053942	0.48100938757015177	0.10102970119889221	-0.04144546453722986	0.4807829857337047	0.059552958435135195	-0.051102826802236656	0.4667769052785019	0.13559063377187808	0.012775119112715533	0.46473322268469336	0.12043586785594851	0.003071695413363454	0.4623908729456063	0.09594992914731482	-0.01256037908930041	0.4669500886888683	0.05579596460588787	-0.03161347869047346	0.46587537036188587	0.1158063041767683	0.03258178719202911	0.46253152534637654	0.10108976863115104	0.022720637053894294	0.4589701787210956	0.08063637331249784	0.008967258954187513	0.46337161084807366	0.04647567416517273	-0.012208077241433107	0.4682358091340282	0.06750638295039846	0.06380411231047364	0.46641454626614165	0.05805235199114922	0.049651222139642334	0.4645952678393874	0.047033700195426964	0.03187225823252519	0.4647193149359343	0.02841482319016808	0.000982041619803184	0.4622830810018609	-0.023011742144276925	-0.051989820119430985
58	1.966666666666658	0.5373308360998273	0.07018464274924585	-0.07962895020755636	0.5245472002645831	0.05138920976657679	-0.07626586325865709	0.5074725290718742	0.02555706069920316	-0.07942429296689321	0.48430080013710486	-0.005461608962768594	-0.05727021635388482	0.4989614145193233	0.13460839274868486	-0.020744738002001134	0.49016319159784544	0.12172094595633032	-0.029937397497392687	0.4815412148404713	0.10092738218552122	-0.04113110356395494	0.4811057939904494	0.05947748099635941	-0.050895948370304894	0.46766840984593516	0.1353283798443793	0.01329203038035462	0.46548871549180865	0.12023800772833948	0.0035181057887671424	0.4629581195409588	0.0958376626204499	-0.012218119703689134	0.4672410163891455	0.055732388898929064	-0.03143716586393551	0.466442065176431	0.11560918340249438	0.03288301627450152	0.4630341126747025	0.1009257337327093	0.022994529760335183	0.4593756304815271	0.08052073302429563	0.009194840157599332	0.46359472498146714	0.046391901263083124	-0.012068812355913894	0.4685104689583419	0.06723003428249819	0.06400499869992175	0.46667250749820044	0.05781580515125251	0.04982775681246562	0.4648254297932471	0.046848887271363826	0.03201969585211287	0.4648945047469726	0.028293769518688117	0.0010909667344282115	0.4622830810018609	-0.023011742144276925	-0.051989820119430985
59	1.9999999999999911	0.5378640382844024	0.06986597116323268	-0.07880648090623038	0.5248958364296832	0.05112969940095646	-0.0758437353711919	0.5076924318500297	0.025422197134866598	-0.07930598869926353	0.4843704847956428	-0.005535661262476954	-0.057224598592605785	0.499510716218358	0.1343487033823837	-0.02028485620018769	0.4906476680872728	0.1215487287580268	-0.029537262775878342	0.48193148200135083	0.10084172384634593	-0.04081812624917716	0.4813426734039592	0.05942015153517566	-0.05069449935402354	0.4682740012927292	0.13509358181348108	0.013753561878378368	0.4660022486876917	0.12005693295307707	0.003917997270771023	0.46333281329362086	0.09573591172683948	-0.011917772088176654	0.4674228850610477	0.055679678758560835	-0.03128055686537995	0.4667183817565994	0.11543891344414847	0.03314479264556663	0.46327916797378776	0.10078029196906646	0.02323032720327531	0.45956483880004123	0.08041736807347888	0.009383483945277216	0.46369949277393463	0.046316136276522646	-0.011940949469152196	0.4685093010619218	0.06701399421665244	0.06417932079513236	0.4666962185852637	0.057626564121774804	0.049981120622342126	0.46486781841197133	0.046696576994845085	0.03214844406464459	0.4649528772330016	0.028183107943117958	0.0011948064808691983	0.4622830810018609	-0.023011742144276925	-0.051989820119430985
